# File created by Blade
# Date/Time:  Wed Apr 08 17:39:35 2015
# Frame Rate: 120.000 fps
#------------------------------------------------------
:FULLY-SPECIFIED
:DEGREES
1831
root 9.327276 36.777949 3.363477 92.961002 -77.707754 -422.170080
Spine -30.627556 -4.038724 1.654448
Head 39.799987 -0.711825 17.493267
LeftShoulder -9.170657 22.615229 14.281689
LeftArm 21.689785 22.609967 -74.399694
LeftForeArm 16.646756 -0.000000 23.263050
LeftHand -11.638083 -0.000000 -11.903313
LeftHandThumb1 -26.253704 0.000000 33.147579
RightShoulder -39.642872 -51.139409 21.453348
RightArm 57.118973 -20.155695 49.248451
RightForeArm 0.446254 -0.000000 21.413222
RightHand 1.089244 -0.000000 7.716696
RightHandThumb1 -24.326973 -0.000000 -32.862282
LeftUpLeg -41.048071 16.430103 -8.500843
LeftLeg 18.081835 -0.000000 -0.000000
LeftFoot -14.953755 16.089972 -6.699210
LeftToeBase 7.369476 -0.000000 -0.000000
RightUpLeg -99.829792 -17.351526 32.684991
RightLeg 67.303658 -0.000000 -0.000000
RightFoot 1.401101 -20.347332 29.137874
RightToeBase -1.500624 -0.000000 0.000000
1832
root 9.321653 36.780719 3.360452 92.770185 -77.669965 -422.090021
Spine -30.488658 -4.040336 1.630630
Head 39.808470 -0.971394 17.503848
LeftShoulder -9.132855 22.562691 14.323770
LeftArm 21.768430 22.686590 -74.389407
LeftForeArm 16.516031 -0.000000 23.333019
LeftHand -11.735704 -0.000000 -11.748400
LeftHandThumb1 -26.253704 0.000000 33.147579
RightShoulder -39.681363 -51.121632 21.510227
RightArm 57.132133 -20.192296 49.134605
RightForeArm 0.124962 0.000000 21.330740
RightHand 1.136437 -0.000000 7.535493
RightHandThumb1 -24.326973 -0.000000 -32.862282
LeftUpLeg -40.875256 16.450068 -8.427902
LeftLeg 17.983803 -0.000000 -0.000000
LeftFoot -14.937775 16.074803 -6.680782
LeftToeBase 7.417904 -0.000000 -0.000000
RightUpLeg -99.471303 -17.467769 31.855984
RightLeg 66.857490 -0.000000 -0.000000
RightFoot 0.063538 -20.503582 27.972524
RightToeBase -2.973762 -0.000000 0.000000
1833
root 9.312958 36.780886 3.358389 92.586468 -77.650571 -422.082817
Spine -30.273024 -4.030371 1.585758
Head 39.813575 -1.205658 17.520105
LeftShoulder -9.113469 22.520940 14.338515
LeftArm 21.866420 22.669021 -74.368934
LeftForeArm 16.545415 0.000000 23.389271
LeftHand -11.676083 -0.000000 -11.789213
LeftHandThumb1 -26.253704 0.000000 33.147579
RightShoulder -39.698281 -51.099843 21.559542
RightArm 57.138511 -20.209485 49.037172
RightForeArm -0.052683 0.000000 21.234861
RightHand 1.034559 -0.000000 7.507342
RightHandThumb1 -24.326973 -0.000000 -32.862282
LeftUpLeg -40.633094 16.490727 -8.358968
LeftLeg 17.891039 -0.000000 -0.000000
LeftFoot -14.926619 16.083460 -6.635604
LeftToeBase 7.409135 -0.000000 -0.000000
RightUpLeg -99.021573 -17.596774 30.910068
RightLeg 66.428484 -0.000000 -0.000000
RightFoot -1.204305 -20.666542 26.970135
RightToeBase -4.598339 -0.000000 0.000000
1834
root 9.302934 36.780418 3.355247 92.309154 -77.613987 -422.002256
Spine -30.033452 -4.034421 1.557496
Head 39.821202 -1.438652 17.523248
LeftShoulder -9.070224 22.447349 14.368362
LeftArm 21.912161 22.684379 -74.371997
LeftForeArm 16.566968 0.000000 23.474626
LeftHand -11.634686 -0.000000 -11.795310
LeftHandThumb1 -26.253704 0.000000 33.147579
RightShoulder -39.683614 -51.081000 21.598527
RightArm 57.101830 -20.180374 49.006808
RightForeArm -0.162049 0.000000 21.138226
RightHand 0.882801 -0.000000 7.440186
RightHandThumb1 -24.326973 -0.000000 -32.862282
LeftUpLeg -40.357650 16.498756 -8.251029
LeftLeg 17.786338 -0.000000 -0.000000
LeftFoot -14.904244 16.128332 -6.543859
LeftToeBase 7.374431 -0.000000 -0.000000
RightUpLeg -98.528876 -17.753285 29.974555
RightLeg 65.997513 -0.000000 -0.000000
RightFoot -2.596543 -20.834210 26.135576
RightToeBase -5.347073 -0.000000 0.000000
